Coordinates
version=1
nRows=5
nColumns=40
inDegrees=yes

Units are S.I. units (second, meters, Newtons, ...)
Angles are in degrees.

endheader
time	pelvis_tilt	pelvis_list	pelvis_rotation	pelvis_tx	pelvis_ty	pelvis_tz	hip_flexion_r	hip_adduction_r	hip_rotation_r	knee_angle_r	knee_angle_r_beta	ankle_angle_r	subtalar_angle_r	mtp_angle_r	hip_flexion_l	hip_adduction_l	hip_rotation_l	knee_angle_l	knee_angle_l_beta	ankle_angle_l	subtalar_angle_l	mtp_angle_l	lumbar_extension	lumbar_bending	lumbar_rotation	arm_flex_r	arm_add_r	arm_rot_r	elbow_flex_r	pro_sup_r	wrist_flex_r	wrist_dev_r	arm_flex_l	arm_add_l	arm_rot_l	elbow_flex_l	pro_sup_l	wrist_flex_l	wrist_dev_l
      3.25128571	     -6.08472161	     -2.91259100	     -5.07137566	      0.97514426	      0.91743447	      0.43489534	     30.48316624	     -2.61403290	    -16.90553305	      8.38208217	      8.38208217	      1.48116805	      8.34513121	     14.40614076	     -0.16827660	     -2.95617707	    -16.30564290	     12.43552721	     12.43552721	     18.51571885	     -3.70387428	     -6.15721025	    -11.88618578	      5.70504644	     -0.48095993	    -17.65362487	    -12.60133509	    -16.52942406	     21.78866923	     47.40958798	      0.00000000	      0.00000000	     23.94037233	    -21.97325899	     -6.50010123	     84.73433910	     47.59131414	      0.00000000	      0.00000000
      3.26257143	     -5.92601397	     -2.74257389	     -5.15292547	      0.97758280	      0.91578350	      0.43706413	     30.00955570	     -2.35043422	    -17.14046856	      7.83739510	      7.83739510	      1.49033547	      8.58582724	     14.42976254	     -1.52429083	     -2.72694097	    -16.51251150	     11.74639275	     11.74639275	     18.87700284	     -3.23020945	     -6.05236142	    -11.66806266	      5.47280519	     -0.20463612	    -18.89955156	    -12.44174198	    -16.69437826	     21.83153283	     47.40372784	      0.00000000	      0.00000000	     23.71289086	    -21.83723118	     -6.75565261	     86.06905965	     47.64207258	      0.00000000	      0.00000000
      3.27385714	     -5.77369919	     -2.62245698	     -5.17619930	      0.98010145	      0.91402939	      0.43937205	     29.60854435	     -2.11757733	    -17.10087881	      7.87321195	      7.87321195	      0.91577830	      8.20710904	     12.29540096	     -2.66529051	     -2.65320593	    -16.76130398	     11.51949374	     11.51949374	     19.64320647	     -2.58206866	     -5.32698870	    -11.48901269	      5.30035919	     -0.47545028	    -20.08722707	    -12.34430560	    -17.19696147	     23.21979801	     47.34543954	      0.00000000	      0.00000000	     22.73597163	    -21.98799119	     -7.69795200	     88.30562309	     47.78876458	      0.00000000	      0.00000000
      3.28514286	     -5.62230291	     -2.56712400	     -5.16137525	      0.98268991	      0.91231631	      0.44184318	     29.21592093	     -1.86325241	    -16.66851271	      8.28396481	      8.28396481	     -0.23765096	      7.06324721	      8.59645807	     -3.70750561	     -2.71365193	    -17.00860728	     11.51584878	     11.51584878	     20.51764308	     -1.89098343	     -4.39697760	    -11.24938833	      5.19914526	     -0.41833759	    -20.94596640	    -12.21811800	    -17.30043088	     23.41338701	     47.30358902	      0.00000000	      0.00000000	     22.19486991	    -21.81732229	     -8.16657782	     89.52880090	     47.89640584	      0.00000000	      0.00000000
      3.29642857	     -5.49329987	     -2.65697538	     -5.08662671	      0.98515790	      0.91076275	      0.44429945	     29.06913065	     -1.66667086	    -16.50450150	      9.52910210	      9.52910210	     -0.34196382	      6.17201438	      7.78603259	     -4.63180718	     -2.94226083	    -16.95250658	     11.62626652	     11.62626652	     20.92565628	     -1.81399947	     -4.33254237	    -11.00715084	      5.29611489	     -0.22216969	    -21.54249754	    -12.09931375	    -17.31361521	     23.20243119	     47.30411147	      0.00000000	      0.00000000	     21.88639706	    -21.54518814	     -8.23854904	     89.98751706	     47.91439874	      0.00000000	      0.00000000
